# xmcd
#
# Track frame offsets:
#	150
#	12468
#	26372
#	42517
#	55568
#	69136
#	79382
#	108225
#	121702
#	133933
#	143484
#	154574
#	169119
#	181929
#	195386
#	208365
#	216592
#	229661
#	243285
#	254284
#
# Disc length: 3558 seconds
#
# Revision: 1
# Processed by: cddbd v1.5.2PL0 Copyright (c) Steve Scherf et al.
# Submitted via: audiograbber 1.83.01
#
DISCID=0f0de414
DTITLE=100 Hits Presents 60's Karaoke (5/5) - 100 Hits Presents 60's Karaoke (5
DTITLE=/5)
DYEAR=2010
DGENRE=Karaoke
TTITLE0=The Supremes (made famous by ~) (karaoke) - Baby love
TTITLE1=Four Tops (made famous by ~) (karaoke) - It's the same old song
TTITLE2=Aretha Franklin (made famous by ~) (karaoke) - I say a little prayer
TTITLE3=Sam Cooke (made famous by ~) (karaoke) - Twistin' the night away
TTITLE4=The Foundations (made famous by ~) (karaoke) - Build me up buttercup
TTITLE5=Tom Jones (made famous by ~) (karaoke) - It's not unusual
TTITLE6=The Rolling Stones (made famous by ~) (karaoke) - Sympathy for the devi
TTITLE6=l
TTITLE7=Chuck Berry (made famous by ~) (karaoke) - No particular place to go
TTITLE8=Roger Miller (made famous by ~) (karaoke) - King of the road
TTITLE9=Cliff Richard And The Shadows (made famous by ~) (karaoke) - Bachelor b
TTITLE9=oy
TTITLE10=Otis Redding (made famous by ~) (karaoke) - Love man
TTITLE11=The Archies (made famous by ~) (karaoke) - Sugar, sugar
TTITLE12=The Drifters (made famous by ~) (karaoke) - Some kind of wonderful
TTITLE13=Dobie Gray (made famous by ~) (karaoke) - The 'in' crowd
TTITLE14=Bobby Vinton (made famous by ~) (karaoke) - Mr. Lonely
TTITLE15=Maurice Williams And The Zodiacs (made famous by ~) (karaoke) - Stay
TTITLE16=Bobby Vee (made famous by ~) (karaoke) - Take good care of my baby
TTITLE17=Tommy James And The Shondells (made famous by ~) (karaoke) - Mony mony
TTITLE18=Bobby Darin (made famous by ~) (karaoke) - Multiplication
TTITLE19=The Temptations (made famous by ~) (karaoke) - Get ready
EXTD=Karaoke CD+G Disc 5 of 5
EXTT0=
EXTT1=
EXTT2=
EXTT3=
EXTT4=
EXTT5=
EXTT6=
EXTT7=
EXTT8=
EXTT9=
EXTT10=
EXTT11=
EXTT12=
EXTT13=
EXTT14=
EXTT15=
EXTT16=
EXTT17=
EXTT18=
EXTT19=
PLAYORDER=
